<?xml version="1.0" standalone="no"?>
<!DOCTYPE svg PUBLIC "-//W3C//DTD SVG 20010904//EN"
 "http://www.w3.org/TR/2001/REC-SVG-20010904/DTD/svg10.dtd">
<svg version="1.0" xmlns="http://www.w3.org/2000/svg"
 width="200.000000pt" height="200.000000pt" viewBox="0 0 200.000000 200.000000"
 preserveAspectRatio="xMidYMid meet">

<g transform="translate(0.000000,200.000000) scale(0.100000,-0.100000)"
fill="#000000" stroke="none">
<path d="M641 1365 c-4 -5 -28 -67 -52 -137 -24 -70 -46 -124 -50 -120 -3 4
-11 27 -18 52 -7 25 -24 82 -37 128 l-25 82 -90 0 c-61 0 -89 -4 -89 -12 0
-11 131 -418 137 -427 3 -5 217 38 249 50 14 5 28 25 37 51 l15 43 12 -32 c8
-23 18 -33 34 -33 30 0 289 59 297 68 5 6 22 60 85 275 5 15 -4 17 -89 17
l-93 0 -41 -142 -40 -143 -44 140 -45 140 -73 5 c-43 3 -76 1 -80 -5z"/>
<path d="M1294 1351 c-78 -45 -131 -124 -141 -212 -3 -27 -3 -49 0 -49 9 0
150 30 169 36 9 3 20 13 23 24 3 10 17 30 32 44 35 35 77 34 136 -4 26 -16 53
-30 60 -30 15 0 77 99 77 122 0 21 -58 66 -107 84 -21 7 -74 13 -118 13 -70 1
-86 -3 -131 -28z"/>
<path d="M1417 1117 c-27 -22 -28 -47 -3 -72 19 -19 32 -23 67 -20 24 2 52 4
62 4 13 1 17 11 19 44 l1 42 6 -45 c5 -34 10 -45 24 -44 53 2 57 4 57 28 0 13
7 26 15 30 10 3 15 -1 15 -14 0 -41 67 -62 127 -39 27 10 27 11 9 25 -17 12
-18 14 -3 14 24 0 22 37 -2 50 -25 13 -98 13 -106 0 -4 -7 -11 -8 -18 -2 -18
15 -252 13 -270 -1z m73 -42 c0 -8 -4 -15 -10 -15 -5 0 -10 7 -10 15 0 8 5 15
10 15 6 0 10 -7 10 -15z"/>
<path d="M1206 1073 l-58 -16 5 -39 c15 -111 115 -215 222 -233 38 -6 38 -5
-10 12 -66 24 -105 53 -140 103 -27 39 -59 135 -50 150 2 4 32 13 65 19 33 7
60 14 60 17 0 7 -32 3 -94 -13z"/>
<path d="M890 998 c-69 -17 -127 -32 -129 -34 -6 -6 41 -164 51 -170 19 -12
18 6 -6 82 -17 52 -22 80 -15 85 6 3 58 17 115 29 58 13 107 27 110 32 3 4 4
8 2 7 -2 -1 -59 -15 -128 -31z"/>
<path d="M1534 989 c-3 -6 -25 -20 -48 -30 -22 -10 -33 -19 -23 -19 21 0 93
35 102 50 3 5 -1 10 -9 10 -8 0 -18 -5 -22 -11z"/>
<path d="M1047 959 c-32 -19 -50 -75 -37 -115 14 -43 35 -54 98 -54 53 0 77
16 66 45 -6 14 -15 16 -45 11 -24 -4 -39 -2 -39 4 0 5 17 10 39 10 62 0 78 42
32 85 -24 21 -90 29 -114 14z m53 -59 c0 -5 -4 -10 -10 -10 -5 0 -10 5 -10 10
0 6 5 10 10 10 6 0 10 -4 10 -10z"/>
<path d="M535 911 c-109 -28 -110 -30 -84 -98 12 -33 31 -29 22 5 -16 62 -14
63 77 85 47 10 87 21 89 23 13 12 -14 8 -104 -15z"/>
<path d="M450 626 l0 -45 75 1 c41 1 75 5 75 10 0 4 -4 8 -10 8 -5 0 -10 7
-10 15 0 8 6 15 14 15 16 0 41 28 33 36 -3 3 -12 2 -19 -2 -13 -9 -17 -10 -71
-13 -19 -1 -31 -9 -39 -26 -16 -35 -28 -31 -28 10 0 19 -4 35 -10 35 -5 0 -10
-20 -10 -44z m103 -23 c-7 -2 -19 -2 -25 0 -7 3 -2 5 12 5 14 0 19 -2 13 -5z"/>
<path d="M700 625 c0 -40 2 -45 23 -45 13 0 28 5 34 11 8 8 13 8 17 0 9 -14
46 -14 46 -1 0 6 -8 10 -17 11 -13 0 -12 3 6 10 20 8 21 12 10 25 -8 9 -21 13
-35 10 -14 -4 -24 -1 -28 9 -3 8 -17 15 -31 15 -23 0 -25 -4 -25 -45z"/>
<path d="M854 656 c-3 -8 -4 -27 -2 -43 l3 -28 128 -1 c70 -1 127 2 127 6 0 5
-8 11 -17 13 -17 4 -17 5 0 6 10 0 20 -6 23 -14 9 -24 24 -17 24 10 0 14 5 25
10 25 6 0 10 4 10 10 0 8 -31 10 -168 11 -29 0 -59 -5 -66 -11 -10 -8 -15 -6
-19 10 -6 23 -45 28 -53 6z m166 -41 c0 -8 -4 -15 -10 -15 -5 0 -7 7 -4 15 4
8 8 15 10 15 2 0 4 -7 4 -15z m27 -7 c-3 -8 -6 -5 -6 6 -1 11 2 17 5 13 3 -3
4 -12 1 -19z m-74 -5 c-7 -2 -19 -2 -25 0 -7 3 -2 5 12 5 14 0 19 -2 13 -5z"/>
<path d="M624 638 c-4 -6 1 -17 11 -25 17 -12 18 -13 1 -13 -9 0 -14 -4 -11
-10 10 -15 35 -12 42 6 3 9 0 20 -8 25 -11 7 -11 9 -1 9 7 0 10 5 7 10 -8 14
-32 13 -41 -2z"/>
<path d="M1287 626 c-4 -10 -5 -21 -2 -24 9 -9 17 6 13 25 -3 17 -4 17 -11 -1z"/>
<path d="M1322 615 c0 -16 2 -22 5 -12 2 9 2 23 0 30 -3 6 -5 -1 -5 -18z"/>
<path d="M1350 615 c0 -8 2 -15 4 -15 2 0 6 7 10 15 3 8 1 15 -4 15 -6 0 -10
-7 -10 -15z"/>
<path d="M1390 610 c0 -11 2 -20 4 -20 2 0 6 9 9 20 3 11 1 20 -4 20 -5 0 -9
-9 -9 -20z"/>
<path d="M1510 615 c0 -8 5 -15 10 -15 6 0 10 7 10 15 0 8 -4 15 -10 15 -5 0
-10 -7 -10 -15z"/>
<path d="M1550 610 c0 -6 7 -10 15 -10 8 0 15 2 15 4 0 2 -7 6 -15 10 -8 3
-15 1 -15 -4z"/>
</g>
    <style>
        path { fill: #ff4f0e; }
        @media (prefers-color-scheme: dark) {
            path { fill: #ff4f0e; }
        }
    </style>
</svg>
